<svg xmlns="http://www.w3.org/2000/svg" xmlns:xlink="http://www.w3.org/1999/xlink" width="20" height="20" viewBox="0 0 20 20">
    <defs>
        <path id="a" d="M6 11h2V9H6v2zm0 3h2v-2H6v2zm3-3h2V9H9v2zm0 3h2v-2H9v2zm3-3h2V9h-2v2zm0 3h2v-2h-2v2zm4-6a1 1 0 0 0-1-1H5a1 1 0 0 0-1 1v7a1 1 0 0 0 1 1h10a1 1 0 0 0 1-1V8zm0 10H4a2 2 0 0 1-2-2V4a2 2 0 0 1 2-2h2v1a1 1 0 0 0 2 0V2h4v1a1 1 0 0 0 2 0V2h2a2 2 0 0 1 2 2v12a2 2 0 0 1-2 2z"/>
    </defs>
    <g fill="none" fill-rule="evenodd">
        <mask id="b" fill="#fff">
            <use xlink:href="#a"/>
        </mask>
        <g fill="#8A9BA8" mask="url(#b)">
            <path d="M0 0h20v20H0z"/>
        </g>
    </g>
</svg>
