<svg xmlns="http://www.w3.org/2000/svg" xmlns:xlink="http://www.w3.org/1999/xlink" width="20" height="20" viewBox="0 0 20 20">
    <defs>
        <path id="a" d="M16.622 3h-5.55c-.252 0-.504.19-.504.378v.883c0 .253.189.505.504.505h2.27c.253 0 .442.315.19.441l-4.92 4.982c-.189.19-.189.442 0 .568l.631.63c.126.19.379.19.568 0l4.982-4.919c.126-.189.441-.063.441.19v2.27c0 .252.252.504.442.504h.883c.252 0 .441-.252.441-.504V3.44C17 3.19 16.81 3 16.622 3zm-3.595 6.874l-1.009 1.009a.81.81 0 0 0-.252.63v3.28c0 .252-.252.441-.442.441H5.207a.431.431 0 0 1-.441-.441V8.676c0-.19.189-.442.441-.442H8.55a.81.81 0 0 0 .63-.252l.946-1.009c.19-.126.063-.441-.19-.441H4.199C3.568 6.532 3 7.036 3 7.667v8.135C3 16.432 3.568 17 4.198 17h8.135c.631 0 1.135-.568 1.135-1.198v-5.739c0-.252-.315-.378-.441-.19z"/>
    </defs>
    <g fill="none" fill-rule="evenodd">
        <mask id="b" fill="#fff">
            <use xlink:href="#a"/>
        </mask>
        <g fill="#4580E6" mask="url(#b)">
            <path d="M0 0h20v20H0z"/>
        </g>
    </g>
</svg>
