<svg xmlns="http://www.w3.org/2000/svg" width="1048" height="401" viewBox="0 0 1048 401">
    <g fill="none" fill-rule="nonzero" opacity=".08">
        <path fill="#0076FF" d="M222.679 74.212h-3.84v-3.84c0-.885-.738-1.476-1.476-1.476-.886 0-1.477.591-1.477 1.477v3.84h-3.839c-.886 0-1.477.738-1.477 1.476s.739 1.477 1.477 1.477h3.84v3.839c0 .886.738 1.476 1.476 1.476.886 0 1.477-.738 1.477-1.476v-3.84h3.839c.886 0 1.477-.738 1.477-1.476s-.739-1.477-1.477-1.477zM78.094 13.079h-3.84v-3.84c0-.885-.738-1.476-1.476-1.476-.739 0-1.477.59-1.477 1.477v3.839h-3.84c-.885 0-1.476.738-1.476 1.477 0 .738.59 1.476 1.477 1.476h3.84v3.84c0 .885.737 1.476 1.476 1.476.738 0 1.476-.738 1.476-1.477v-3.839h3.84c.886 0 1.476-.738 1.476-1.476 0-.739-.738-1.477-1.476-1.477zM444.894 203.271h-3.84v-3.839c0-.886-.738-1.476-1.476-1.476-.886 0-1.477.59-1.477 1.476v3.84h-3.84c-.885 0-1.476.738-1.476 1.476s.739 1.477 1.477 1.477h3.84v3.84c0 .885.737 1.476 1.476 1.476.886 0 1.476-.739 1.476-1.477v-3.84h3.84c.886 0 1.476-.738 1.476-1.476s-.738-1.477-1.476-1.477zM639.938 87.797h-3.84v-3.839c0-.886-.737-1.477-1.476-1.477-.886 0-1.476.591-1.476 1.477v3.84h-3.84c-.886 0-1.476.738-1.476 1.476s.738 1.477 1.476 1.477h3.84v3.839c0 .886.738 1.477 1.476 1.477.886 0 1.477-.739 1.477-1.477v-3.84h3.84c.885 0 1.476-.738 1.476-1.476s-.739-1.477-1.477-1.477zM776.76 5.316h-3.839v-3.84c0-.885-.738-1.476-1.477-1.476-.886 0-1.476.59-1.476 1.477v3.839h-3.84c-.885 0-1.476.738-1.476 1.477 0 .738.738 1.476 1.477 1.476h3.839v3.84c0 .886.738 1.476 1.476 1.476.886 0 1.477-.738 1.477-1.476v-3.84h3.84c.885 0 1.476-.738 1.476-1.476 0-.739-.738-1.477-1.477-1.477zM744.738 198.42h-3.84v-3.84c0-.886-.737-1.476-1.476-1.476-.886 0-1.476.59-1.476 1.476v3.84h-3.84c-.886 0-1.476.738-1.476 1.476 0 .739.738 1.477 1.476 1.477h3.84v3.84c0 .885.738 1.476 1.476 1.476.886 0 1.477-.738 1.477-1.477v-3.84h3.84c.885 0 1.476-.737 1.476-1.476 0-.738-.59-1.476-1.477-1.476zM1046.523 127.583h-3.839v-3.84c0-.886-.738-1.476-1.477-1.476-.886 0-1.476.59-1.476 1.476v3.84h-3.84c-.886 0-1.476.738-1.476 1.476 0 .886.738 1.477 1.476 1.477h3.84v3.84c0 .885.738 1.476 1.476 1.476.886 0 1.477-.738 1.477-1.477v-3.84h3.84c.885 0 1.476-.737 1.476-1.476 0-.886-.59-1.476-1.477-1.476zM12.109 264.405h-3.84v-3.84c0-.885-.738-1.476-1.476-1.476-.886 0-1.477.59-1.477 1.477v3.839h-3.84c-.885 0-1.476.738-1.476 1.476 0 .886.738 1.477 1.477 1.477h3.839v3.84c0 .885.738 1.476 1.477 1.476.886 0 1.476-.738 1.476-1.477v-3.839h3.84c.886 0 1.476-.738 1.476-1.477 0-.886-.738-1.476-1.476-1.476z"/>
        <path fill="#94A3AA" d="M146.526 115.474h187.281v282.378H146.526z"/>
        <path fill="#383838" d="M332.313 400.763H145.11c-.897 0-1.494-.596-1.494-1.49v-283.28c0-.894.597-1.49 1.494-1.49h187.204c.897 0 1.494.596 1.494 1.49v283.28c0 .745-.597 1.49-1.494 1.49zm-185.71-2.979h184.216V117.482H146.603v280.302z"/>
        <path fill="#383838" d="M237.741 115.474h2.911v282.378h-2.911z"/>
        <path fill="#4A90E2" d="M158.17 227.067h55.311v48.519H158.17z"/>
        <path fill="#383838" d="M214.88 275.585h-55.197c-.908 0-1.513-.593-1.513-1.484V226.61c0-.89.605-1.484 1.513-1.484h55.197c.908 0 1.513.594 1.513 1.484v47.491c0 .742-.757 1.484-1.513 1.484zm-53.685-2.968h52.173v-44.523h-52.173v44.523z"/>
        <path fill="#94A3AA" d="M165.933 231.919h42.696v7.763h-42.696z"/>
        <path fill="#383838" d="M209.05 238.711h-42.567c-.912 0-1.52-.537-1.52-1.343v-6.047c0-.806.608-1.343 1.52-1.343h42.567c.912 0 1.52.537 1.52 1.343v6.047c0 .671-.76 1.343-1.52 1.343zm-41.047-2.687h39.527v-3.359h-39.527v3.359z"/>
        <path fill="#94A3AA" d="M165.933 246.474h21.348v23.289h-21.348z"/>
        <path fill="#383838" d="M186.796 269.763H166.42c-.874 0-1.456-.621-1.456-1.553v-24.065c0-.931.582-1.552 1.456-1.552h20.377c.874 0 1.456.62 1.456 1.552v24.065c0 .777-.728 1.553-1.456 1.553zm-18.922-3.105h17.467v-20.96h-17.467v20.96z"/>
        <path fill="#4A90E2" d="M245.504 190.193h4.852v138.763h-4.852z"/>
        <path fill="#383838" d="M249.914 332.837h-4.94c-.846 0-1.411-.596-1.411-1.491V190.714c0-.895.565-1.492 1.411-1.492h4.94c.847 0 1.412.597 1.412 1.492v140.632c0 .895-.706 1.491-1.412 1.491zm-3.528-2.983h2.117v-137.65h-2.117v137.65z"/>
        <path fill="#4A90E2" d="M227.067 190.193h4.852v138.763h-4.852z"/>
        <path fill="#383838" d="M231.477 332.837h-4.94c-.846 0-1.411-.596-1.411-1.491V190.714c0-.895.565-1.492 1.411-1.492h4.94c.847 0 1.412.597 1.412 1.492v140.632c0 .895-.706 1.491-1.412 1.491zm-3.528-2.983h2.117v-137.65h-2.117v137.65z"/>
        <path fill="#4A90E2" d="M433.756 261.03h120.326v138.763H433.756z"/>
        <path fill="#383838" d="M554.525 400.763H434.283c-.899 0-1.498-.59-1.498-1.476V262.505c0-.885.6-1.475 1.498-1.475h120.242c.898 0 1.497.59 1.497 1.475v136.782a1.49 1.49 0 0 1-1.497 1.476zm-118.745-2.951h117.247V263.98H435.78v133.83z"/>
        <path fill="#94A3AA" d="M443.459 315.37h103.83v72.778h-103.83z"/>
        <path fill="#383838" d="M545.802 388.148H442.035c-.892 0-1.487-.598-1.487-1.494v-71.73c0-.897.595-1.494 1.487-1.494h103.767c.892 0 1.487.597 1.487 1.494v71.73c0 .747-.743 1.494-1.487 1.494zm-102.28-2.989h100.794v-68.74H443.52v68.74z"/>
        <circle cx="494.404" cy="304.211" r="4.367" fill="#9B9B9B"/>
        <path fill="#383838" d="M495.374 311.489c-3.469 0-6.307-2.838-6.307-6.308 0-3.469 2.838-6.307 6.307-6.307 3.47 0 6.307 2.838 6.307 6.307 0 3.47-2.838 6.308-6.307 6.308zm0-9.619a3.163 3.163 0 0 0-3.154 3.154 3.163 3.163 0 0 0 3.154 3.154 3.163 3.163 0 0 0 3.154-3.154 3.163 3.163 0 0 0-3.154-3.154z"/>
        <circle cx="458.985" cy="273.644" r="6.793" fill="#94A3AA"/>
        <path fill="#383838" d="M459.47 281.407a8.214 8.214 0 0 1-8.248-8.248 8.214 8.214 0 0 1 8.248-8.248 8.214 8.214 0 0 1 8.249 8.248 8.214 8.214 0 0 1-8.249 8.248zm0-13.288a5.15 5.15 0 0 0-5.193 5.193 5.15 5.15 0 0 0 5.193 5.193 5.15 5.15 0 0 0 5.194-5.193 5.15 5.15 0 0 0-5.194-5.193z"/>
        <circle cx="482.274" cy="273.644" r="6.793" fill="#94A3AA"/>
        <path fill="#383838" d="M481.789 281.407a8.214 8.214 0 0 1-8.248-8.248 8.214 8.214 0 0 1 8.248-8.248 8.214 8.214 0 0 1 8.248 8.248c0 4.583-3.819 8.248-8.248 8.248zm0-13.288a5.15 5.15 0 0 0-5.193 5.193 5.15 5.15 0 0 0 5.193 5.193 5.15 5.15 0 0 0 5.193-5.193c-.153-2.902-2.444-5.193-5.193-5.193z"/>
        <circle cx="506.533" cy="273.644" r="6.793" fill="#94A3AA"/>
        <path fill="#383838" d="M506.048 281.407a8.214 8.214 0 0 1-8.248-8.248 8.214 8.214 0 0 1 8.248-8.248 8.214 8.214 0 0 1 8.248 8.248 8.214 8.214 0 0 1-8.248 8.248zm0-13.288a5.15 5.15 0 0 0-5.193 5.193 5.15 5.15 0 0 0 5.193 5.193 5.15 5.15 0 0 0 5.193-5.193 5.15 5.15 0 0 0-5.193-5.193z"/>
        <circle cx="527.881" cy="273.644" r="6.793" fill="#94A3AA"/>
        <path fill="#383838" d="M529.337 281.407a8.214 8.214 0 0 1-8.248-8.248 8.214 8.214 0 0 1 8.248-8.248 8.214 8.214 0 0 1 8.248 8.248c0 4.583-3.818 8.248-8.248 8.248zm0-13.288a5.15 5.15 0 0 0-5.193 5.193 5.15 5.15 0 0 0 5.193 5.193 5.15 5.15 0 0 0 5.193-5.193c0-2.902-2.444-5.193-5.193-5.193z"/>
        <path fill="#94A3AA" d="M443.459 286.259h103.83v7.763h-103.83z"/>
        <path fill="#383838" d="M545.802 295.963H442.035c-.892 0-1.487-.61-1.487-1.525v-7.624c0-.915.595-1.525 1.487-1.525h103.767c.892 0 1.487.61 1.487 1.525v7.624c0 .763-.743 1.525-1.487 1.525zm-102.28-3.05h100.794v-4.574H443.52v4.574zM467.236 263.94h-21.354c-.871 0-1.452-.646-1.452-1.617v-4.528c0-.97.58-1.617 1.452-1.617h21.354c.872 0 1.453.647 1.453 1.617v4.528c0 .81-.726 1.618-1.453 1.618zm-19.901-3.234h18.449v-1.294h-18.45v1.294zM538.073 263.94H516.72c-.871 0-1.452-.646-1.452-1.617v-4.528c0-.97.58-1.617 1.452-1.617h21.354c.872 0 1.453.647 1.453 1.617v4.528c0 .81-.726 1.618-1.453 1.618zm-19.901-3.234h18.449v-1.294h-18.449v1.294z"/>
        <path fill="#4A90E2" d="M554.081 261.03h175.637v138.763H554.081z"/>
        <path fill="#383838" d="M730.165 400.763h-175.56c-.896 0-1.494-.59-1.494-1.476V262.505c0-.885.598-1.475 1.494-1.475h175.56c.897 0 1.494.59 1.494 1.475v136.782c0 .738-.747 1.476-1.494 1.476zM556.1 397.812h172.572V263.98H556.099v133.83z"/>
        <path fill="#4A90E2" d="M554.081 261.03h175.637v33.963H554.081z"/>
        <path fill="#383838" d="M730.165 295.963h-175.56c-.896 0-1.494-.57-1.494-1.426v-32.082c0-.855.598-1.425 1.494-1.425h175.56c.897 0 1.494.57 1.494 1.425v32.082c0 .713-.747 1.426-1.494 1.426zM556.1 293.111h172.572v-29.23H556.099v29.23z"/>
        <path fill="#383838" d="M641.415 261.03h2.911v138.763h-2.911z"/>
        <circle cx="685.567" cy="277.041" r="4.367" fill="#94A3AA"/>
        <path fill="#383838" d="M685.567 284.319c-3.47 0-6.308-2.839-6.308-6.308s2.839-6.307 6.308-6.307 6.307 2.838 6.307 6.307c0 3.47-2.838 6.308-6.307 6.308zm0-9.62a3.163 3.163 0 0 0-3.154 3.154 3.163 3.163 0 0 0 3.154 3.154 3.163 3.163 0 0 0 3.153-3.154 3.163 3.163 0 0 0-3.153-3.153z"/>
        <circle cx="597.263" cy="277.041" r="4.367" fill="#94A3AA"/>
        <path fill="#383838" d="M597.263 284.319c-3.47 0-6.307-2.839-6.307-6.308s2.838-6.307 6.307-6.307c3.469 0 6.307 2.838 6.307 6.307 0 3.47-2.838 6.308-6.307 6.308zm0-9.62a3.163 3.163 0 0 0-3.154 3.154 3.163 3.163 0 0 0 3.154 3.154 3.163 3.163 0 0 0 3.154-3.154 3.163 3.163 0 0 0-3.154-3.153z"/>
        <path fill="#4A90E2" d="M729.719 261.03h175.637v138.763H729.719z"/>
        <path fill="#383838" d="M906.773 400.763h-175.56c-.897 0-1.494-.59-1.494-1.476V262.505c0-.885.597-1.475 1.494-1.475h175.56c.896 0 1.494.59 1.494 1.475v136.782c0 .738-.747 1.476-1.494 1.476zm-174.066-2.951h172.571V263.98H732.707v133.83z"/>
        <path fill="#383838" d="M815.111 261.03h2.911v138.763h-2.911z"/>
        <circle cx="830.152" cy="277.041" r="4.367" fill="#94A3AA"/>
        <path fill="#383838" d="M832.09 284.319c-3.468 0-6.305-2.839-6.305-6.308s2.837-6.307 6.304-6.307c3.468 0 6.305 2.838 6.305 6.307.157 3.47-2.68 6.308-6.305 6.308zm0-9.62a3.162 3.162 0 0 0-3.153 3.154 3.162 3.162 0 0 0 3.152 3.154 3.162 3.162 0 0 0 3.153-3.154c.157-1.734-1.261-3.153-3.153-3.153z"/>
        <circle cx="802.981" cy="277.041" r="4.367" fill="#94A3AA"/>
        <path fill="#383838" d="M804.922 284.319c-3.469 0-6.307-2.839-6.307-6.308s2.838-6.307 6.307-6.307c3.47 0 6.308 2.838 6.308 6.307 0 3.47-2.839 6.308-6.308 6.308zm0-9.62a3.163 3.163 0 0 0-3.153 3.154 3.163 3.163 0 0 0 3.153 3.154 3.163 3.163 0 0 0 3.154-3.154 3.163 3.163 0 0 0-3.154-3.153z"/>
        <path fill="#94A3AA" d="M815.111 232.889h2.911v27.17h-2.911z"/>
        <path fill="#383838" d="M819.316 260.06h-4.528c-.97 0-1.618-.58-1.618-1.447v-27.189c0-.868.647-1.446 1.618-1.446h4.528c.97 0 1.617.578 1.617 1.446v27.189c0 .723-.808 1.446-1.617 1.446zm-2.911-2.893h1.294V232.87h-1.294v24.297z"/>
        <path fill="#94A3AA" d="M833.046 239.681h-34.431v8.733h3.265v-3.91h31.166v3.91h3.413v-8.733z"/>
        <path fill="#383838" d="M837.74 249.385h-3.26c-.89 0-1.482-.617-1.482-1.544v-3.087h-28.159v3.087c0 .927-.593 1.544-1.482 1.544h-3.26c-.89 0-1.482-.617-1.482-1.544v-10.497c0-.926.593-1.544 1.482-1.544h37.791c.89 0 1.482.618 1.482 1.544v10.497c-.148.927-.889 1.544-1.63 1.544zm-1.926-3.087h.296v-7.41h-34.828v7.41h.297v-3.088c0-.926.593-1.544 1.482-1.544h31.122c.89 0 1.482.618 1.482 1.544v3.088h.149z"/>
        <path fill="#94A3AA" d="M794.733 248.415h7.763v2.911h-7.763z"/>
        <path fill="#383838" d="M802.955 251.326h-7.71c-.889 0-1.482-.555-1.482-1.386v-2.08c0-.831.593-1.386 1.482-1.386h7.71c.889 0 1.482.555 1.482 1.386v2.08c0 .831-.741 1.386-1.482 1.386z"/>
        <path fill="#94A3AA" d="M831.607 248.415h7.763v2.911h-7.763z"/>
        <path fill="#383838" d="M837.888 251.326h-7.71c-.889 0-1.482-.555-1.482-1.386v-2.08c0-.831.593-1.386 1.483-1.386h7.709c.89 0 1.482.555 1.482 1.386v2.08c0 .831-.74 1.386-1.482 1.386z"/>
        <path fill="#73B6B6" d="M788.911 195.044H812.2v7.763h-23.289z"/>
        <path fill="#383838" d="M811.709 203.778h-21.336c-.877 0-1.462-.61-1.462-1.525v-7.624c0-.915.585-1.525 1.462-1.525h21.336c.877 0 1.461.61 1.461 1.525v7.624c0 .915-.73 1.525-1.461 1.525zm-19.875-3.05h18.414v-4.575h-18.414v4.575z"/>
        <path fill="#73B6B6" d="M812.2 195.044h23.289v7.763H812.2z"/>
        <path fill="#383838" d="M832.087 203.778H810.75c-.877 0-1.461-.61-1.461-1.525v-7.624c0-.915.584-1.525 1.461-1.525h21.337c.877 0 1.461.61 1.461 1.525v7.624c0 .915-.584 1.525-1.461 1.525zm-19.73-3.05h18.414v-4.575h-18.413v4.575z"/>
        <path fill="#73B6B6" d="M799.585 186.311h23.289v7.763h-23.289z"/>
        <path fill="#383838" d="M821.413 195.044h-21.337c-.877 0-1.461-.61-1.461-1.524v-7.625c0-.915.584-1.525 1.461-1.525h21.337c.877 0 1.461.61 1.461 1.525v7.625c0 .914-.584 1.524-1.461 1.524zm-19.73-3.05h18.414v-4.574h-18.413v4.575z"/>
        <path fill="#73B6B6" d="M799.585 202.807h23.289v7.763h-23.289z"/>
        <path fill="#383838" d="M821.413 210.57h-21.337c-.877 0-1.461-.61-1.461-1.524v-7.625c0-.915.584-1.525 1.461-1.525h21.337c.877 0 1.461.61 1.461 1.525v7.625c0 .914-.584 1.524-1.461 1.524zm-19.73-3.05h18.414v-4.574h-18.413v4.575z"/>
        <path fill="#73B6B6" d="M358.067 195.044h23.289v7.763h-23.289z"/>
        <path fill="#383838" d="M378.924 203.778h-21.337c-.877 0-1.461-.61-1.461-1.525v-7.624c0-.915.584-1.525 1.461-1.525h21.337c.877 0 1.461.61 1.461 1.525v7.624c0 .915-.73 1.525-1.461 1.525zm-19.875-3.05h18.413v-4.575H359.05v4.575z"/>
        <path fill="#73B6B6" d="M377.474 195.044h23.289v7.763h-23.289z"/>
        <path fill="#383838" d="M400.272 203.778h-21.337c-.876 0-1.46-.61-1.46-1.525v-7.624c0-.915.584-1.525 1.46-1.525h21.337c.877 0 1.461.61 1.461 1.525v7.624c0 .915-.73 1.525-1.461 1.525zm-19.875-3.05h18.414v-4.575h-18.414v4.575z"/>
        <path fill="#73B6B6" d="M368.741 186.311h23.289v7.763h-23.289z"/>
        <path fill="#383838" d="M389.598 195.044H368.26c-.876 0-1.461-.61-1.461-1.524v-7.625c0-.915.585-1.525 1.461-1.525h21.337c.877 0 1.461.61 1.461 1.525v7.625c0 .914-.584 1.524-1.461 1.524zm-19.73-3.05h18.415v-4.574h-18.414v4.575z"/>
        <path fill="#73B6B6" d="M368.741 202.807h23.289v7.763h-23.289z"/>
        <path fill="#383838" d="M389.598 210.57H368.26c-.876 0-1.461-.61-1.461-1.524v-7.625c0-.915.585-1.525 1.461-1.525h21.337c.877 0 1.461.61 1.461 1.525v7.625c0 .914-.584 1.524-1.461 1.524zm-19.73-3.05h18.415v-4.574h-18.414v4.575z"/>
        <path fill="#73B6B6" d="M484.215 207.659h23.289v7.763h-23.289z"/>
        <path fill="#383838" d="M506.042 218.333h-21.336c-.877 0-1.462-.61-1.462-1.525v-7.624c0-.915.585-1.525 1.462-1.525h21.336c.877 0 1.462.61 1.462 1.525v7.624c0 .915-.731 1.525-1.462 1.525zm-19.875-3.05h18.414v-4.574h-18.414v4.575z"/>
        <path fill="#73B6B6" d="M476.452 214.452h23.289v7.763h-23.289z"/>
        <path fill="#383838" d="M496.339 222.215h-21.337c-.877 0-1.461-.61-1.461-1.525v-7.624c0-.915.584-1.525 1.461-1.525h21.337c.876 0 1.461.61 1.461 1.525v7.624c0 .762-.585 1.525-1.461 1.525zm-19.875-3.05h18.413v-4.575h-18.413v4.575z"/>
        <path fill="#4A90E2" d="M330.896 261.03h104.8v138.763h-104.8z"/>
        <path fill="#383838" d="M437.116 400.763H332.388c-.895 0-1.492-.59-1.492-1.476V262.505c0-.885.597-1.475 1.492-1.475h104.728c.895 0 1.491.59 1.491 1.475v136.782c0 .738-.746 1.476-1.491 1.476zm-103.236-2.951h101.744V263.98H333.88v133.83z"/>
        <path fill="#4A90E2" d="M330.896 261.03h103.83v33.963h-103.83z"/>
        <path fill="#383838" d="M436.142 295.963h-103.75c-.898 0-1.496-.57-1.496-1.426v-32.082c0-.855.598-1.425 1.495-1.425h103.751c.897 0 1.495.57 1.495 1.425v32.082c0 .713-.598 1.426-1.495 1.426zm-102.256-2.852h100.761v-29.23h-100.76v29.23z"/>
        <circle cx="383.781" cy="277.041" r="4.367" fill="#4A90E2"/>
        <path fill="#383838" d="M383.781 284.319c-3.469 0-6.307-2.839-6.307-6.308s2.838-6.307 6.307-6.307c3.47 0 6.308 2.838 6.308 6.307 0 3.47-2.838 6.308-6.308 6.308zm0-9.62a3.163 3.163 0 0 0-3.153 3.154 3.163 3.163 0 0 0 3.153 3.154 3.163 3.163 0 0 0 3.154-3.154 3.163 3.163 0 0 0-3.154-3.153z"/>
    </g>
</svg>
