<svg xmlns="http://www.w3.org/2000/svg" xmlns:xlink="http://www.w3.org/1999/xlink" width="20" height="20"><defs><path id="a" d="M17.2 8.396h-1.848c-.11-.37-.27-.71-.45-1.04l1.36-1.358a.805.805 0 0 0 0-1.13l-1.13-1.13a.802.802 0 0 0-1.13 0l-1.359 1.36c-.33-.18-.67-.33-1.039-.44V2.8c0-.44-.36-.8-.8-.8H9.205c-.44 0-.799.36-.799.8v1.858c-.39.12-.75.28-1.1.47l-1.299-1.3a.773.773 0 0 0-1.089 0l-1.09 1.09a.774.774 0 0 0 0 1.09l1.3 1.299c-.19.35-.36.71-.48 1.099H2.8c-.44 0-.8.36-.8.8v1.598c0 .44.36.8.8.8h1.848c.11.37.27.71.45 1.04l-1.36 1.358a.805.805 0 0 0 0 1.13l1.13 1.13c.31.309.82.309 1.13 0l1.359-1.36c.33.18.67.33 1.039.44V17.2c0 .44.36.8.8.8h1.599c.44 0 .799-.36.799-.8v-1.858c.39-.12.75-.28 1.1-.47l1.299 1.3c.3.299.789.299 1.089 0l1.09-1.09a.774.774 0 0 0 0-1.09l-1.3-1.299c.19-.35.36-.71.48-1.099H17.2c.44 0 .8-.36.8-.8V9.197c0-.44-.36-.8-.8-.8zm-7.195 4.597a2.994 2.994 0 0 1-2.998-2.998 2.994 2.994 0 0 1 2.998-2.998 2.994 2.994 0 0 1 2.998 2.998 2.994 2.994 0 0 1-2.998 2.998z"/></defs><g fill="none" fill-rule="evenodd"><mask id="b" fill="#fff"><use xlink:href="#a"/></mask><g fill="#8A9BA8" mask="url(#b)"><path d="M0 0h20v20H0z"/></g></g></svg>